<?xml version="1.0" encoding="UTF-8"?>
<svg width="16px" height="16px" viewBox="0 0 16 16" version="1.1" xmlns="http://www.w3.org/2000/svg" xmlns:xlink="http://www.w3.org/1999/xlink">
    <!-- Generator: Sketch 51.3 (57544) - http://www.bohemiancoding.com/sketch -->
    <title>calendar drop down</title>
    <desc>Created with Sketch.</desc>
    <defs></defs>
    <g id="Page-1" stroke="none" stroke-width="1" fill="none" fill-rule="evenodd">
        <g id="UI-for-test" transform="translate(-240.000000, -791.000000)">
            <g id="calendar-drop-down" transform="translate(236.000000, 787.000000)">
                <rect id="bounds-copy" x="0" y="0" width="24" height="24"></rect>
                <g id="Group" transform="translate(4.000000, 4.000000)" fill="#758094" fill-rule="nonzero">
                    <path d="M13.3333333,1.33333333 L12.6666667,1.33333333 L12.6666667,0.666666667 C12.6666667,0.298476833 12.3681898,0 12,0 C11.6318102,0 11.3333333,0.298476833 11.3333333,0.666666667 L11.3333333,1.33333333 L8.66666667,1.33333333 L8.66666667,0.666666667 C8.66666667,0.298476833 8.36818983,0 8,0 C7.63181017,0 7.33333333,0.298476833 7.33333333,0.666666667 L7.33333333,1.33333333 L4.66666667,1.33333333 L4.66666667,0.666666667 C4.66666667,0.298476833 4.36818983,0 4,0 C3.63181017,0 3.33333333,0.298476833 3.33333333,0.666666667 L3.33333333,1.33333333 L2.66666667,1.33333333 C1.19390733,1.33333333 0,2.52724067 0,4 L0,13.3333333 C0,14.8060927 1.19390733,16 2.66666667,16 L13.3333333,16 C14.8060927,16 16,14.8060927 16,13.3333333 L16,4 C16,2.52724067 14.8060927,1.33333333 13.3333333,1.33333333 Z M2.66666667,2.66666667 L3.33333333,2.66666667 L3.33333333,3.33333333 C3.33333333,3.70152317 3.63181017,4 4,4 C4.36818983,4 4.66666667,3.70152317 4.66666667,3.33333333 L4.66666667,2.66666667 L7.33333333,2.66666667 L7.33333333,3.33333333 C7.33333333,3.70152317 7.63181017,4 8,4 C8.36818983,4 8.66666667,3.70152317 8.66666667,3.33333333 L8.66666667,2.66666667 L11.3333333,2.66666667 L11.3333333,3.33333333 C11.3333333,3.70152317 11.6318102,4 12,4 C12.3681898,4 12.6666667,3.70152317 12.6666667,3.33333333 L12.6666667,2.66666667 L13.3333333,2.66666667 C14.069713,2.66666667 14.6666667,3.26362033 14.6666667,4 L14.6666667,5.33333333 L1.33333333,5.33333333 L1.33333333,4 C1.33333333,3.26362033 1.930287,2.66666667 2.66666667,2.66666667 Z M13.3333333,14.6666667 L2.66666667,14.6666667 C1.930287,14.6666667 1.33333333,14.069713 1.33333333,13.3333333 L1.33333333,6.66666667 L14.6666667,6.66666667 L14.6666667,13.3333333 C14.6666667,14.069713 14.069713,14.6666667 13.3333333,14.6666667 Z" id="Shape"></path>
                </g>
            </g>
        </g>
    </g>
</svg>