<?xml version="1.0" encoding="UTF-8"?>
<svg width="16px" height="14px" viewBox="0 0 16 14" version="1.1" xmlns="http://www.w3.org/2000/svg" xmlns:xlink="http://www.w3.org/1999/xlink">
    <!-- Generator: Sketch 51.3 (57544) - http://www.bohemiancoding.com/sketch -->
    <title>Shape</title>
    <desc>Created with Sketch.</desc>
    <defs></defs>
    <g id="Page-1" stroke="none" stroke-width="1" fill="none" fill-rule="evenodd">
        <g id="login-(edit)" transform="translate(-614.000000, -387.000000)" fill="#FFFFFF" fill-rule="nonzero">
            <g id="Group-4" transform="translate(611.000000, 384.000000)">
                <g id="turn-visibility-off-button" transform="translate(3.000000, 3.000000)">
                    <path d="M8.02862254,2.96635802 C10.0722719,2.96635802 11.6779964,4.58240741 11.6779964,6.63919753 C11.6779964,7.07993827 11.6050089,7.5941358 11.3860465,7.96141975 L13.5026834,10.0916379 C14.5974955,9.1367284 15.4733453,7.96141975 15.9842576,6.63916872 C14.7434419,3.40706996 11.6050089,1.12990947 7.95563506,1.12990947 C6.93381038,1.12990947 5.98497317,1.35027984 5.03613596,1.644107 L6.64186047,3.26015638 C7.07978533,3.03981481 7.59069767,2.96635802 8.02862254,2.96635802 Z M0.729874776,0.983024691 L2.40858676,2.67253086 L2.70053667,2.96635802 C1.45974955,3.9212963 0.510912343,5.17006173 0,6.63919753 C1.24078712,9.8712963 4.37924866,12.1484568 8.02862254,12.1484568 C9.1234347,12.1484568 10.2182469,11.9280864 11.2400716,11.5608025 L11.5320215,11.8546296 L13.6486297,13.9848765 L14.5974669,13.0299383 L1.67871199,0.0280864198 L0.729874776,0.983024691 Z M4.74418605,5.02314815 L5.83899821,6.125 C5.83899821,6.34537037 5.83899821,6.49228395 5.83899821,6.63919753 C5.83899821,7.88796296 6.78783542,8.84290123 8.02862254,8.84290123 C8.1745975,8.84290123 8.32057245,8.84290123 8.53953488,8.76944444 L9.63434705,9.8712963 C9.1234347,10.1651235 8.61255098,10.312037 8.02862254,10.312037 C5.98497317,10.312037 4.37924866,8.69598765 4.37924866,6.63919753 C4.37924866,6.05154321 4.52522361,5.53734568 4.74418605,5.02314815 Z M7.88264758,4.43549383 L10.1452594,6.71265432 C10.1452594,6.63919753 10.1452594,6.63919753 10.1452594,6.56574074 C10.1452594,5.31697531 9.19642218,4.36203704 7.95563506,4.36203704 C7.95563506,4.43549383 7.95563506,4.43549383 7.88264758,4.43549383 Z" id="Shape"></path>
                </g>
            </g>
        </g>
    </g>
</svg>