<?xml version="1.0" encoding="UTF-8"?>
<svg width="16px" height="11px" viewBox="0 0 16 11" version="1.1" xmlns="http://www.w3.org/2000/svg" xmlns:xlink="http://www.w3.org/1999/xlink">
    <!-- Generator: Sketch 51.3 (57544) - http://www.bohemiancoding.com/sketch -->
    <title>visibility-button</title>
    <desc>Created with Sketch.</desc>
    <defs></defs>
    <g id="Page-1" stroke="none" stroke-width="1" fill="none" fill-rule="evenodd">
        <g id="login-(edit)" transform="translate(-649.000000, -435.000000)" fill="#FFFFFF" fill-rule="nonzero">
            <g id="visibility-button" transform="translate(649.000000, 435.000000)">
                <path d="M8,0 C4.36363636,0 1.23636364,2.26567901 0,5.48148148 C1.23636364,8.69728395 4.36363636,10.962963 8,10.962963 C11.6363636,10.962963 14.7636364,8.69728395 16,5.48148148 C14.7636364,2.26567901 11.6363636,0 8,0 Z M8,9.13580247 C5.96363636,9.13580247 4.36363636,7.52790123 4.36363636,5.48148148 C4.36363636,3.43506173 5.96363636,1.82716049 8,1.82716049 C10.0363636,1.82716049 11.6363636,3.43506173 11.6363636,5.48148148 C11.6363636,7.52790123 10.0363636,9.13580247 8,9.13580247 Z M8,3.28888889 C6.76363636,3.28888889 5.81818182,4.23901235 5.81818182,5.48148148 C5.81818182,6.72395062 6.76363636,7.67407407 8,7.67407407 C9.23636364,7.67407407 10.1818182,6.72395062 10.1818182,5.48148148 C10.1818182,4.23901235 9.23636364,3.28888889 8,3.28888889 Z" id="Shape"></path>
            </g>
        </g>
    </g>
</svg>